<?xml version="1.0" encoding="UTF-8"?>
<svg id="Livello_1" data-name="Livello 1" xmlns="http://www.w3.org/2000/svg" viewBox="0 0 41.87 61.11">
  <defs>
    <style>
      .cls-1 {
        fill: #fff;
      }

      .cls-1, .cls-2 {
        stroke-width: 0px;
      }

      .cls-2 {
        fill: #005959;
      }
    </style>
  </defs>
  <path class="cls-2" d="M25.64,34.7l-1.84.64v13.49c-.22.06-.58.11-1.07.17-.5.06-1.21.08-2.14.08-2.25,0-3.93-.6-5.03-1.81-1.1-1.21-1.65-3.46-1.65-6.76v-22.9c-1.15-.27-2.34-.46-3.54-.58-1.21-.11-2.34-.17-3.38-.17-1.1,0-2.24.06-3.42.17-1.18.11-2.38.3-3.59.58v24.06c0,4.29.58,7.7,1.73,10.26,1.15,2.55,2.7,4.5,4.65,5.85,1.95,1.35,4.21,2.24,6.8,2.68,2.58.44,5.27.66,8.07.66,1.48,0,2.99-.08,4.53-.25,1.54-.17,3.03-.4,4.49-.7,1.45-.3,2.83-.62,4.12-.95,1.29-.33,2.4-.66,3.34-.99v-30.2c-1.13.88-2.35,1.73-3.67,2.55-4.35,2.69-8.25,4.08-8.41,4.13Z"/>
  <path class="cls-1" d="M34.43.69c-5.08-1.86-10.63.14-13.43,4.52-.03.04-.05.08-.08.13-.41.65-.75,1.35-1.03,2.1-3.52,9.62,3.92,22.26,3.92,22.26,0,0,8.56-3,13.92-8.95.68-.76,1.31-1.56,1.87-2.41.07-.11.14-.21.21-.32.54-.88,1.01-1.81,1.37-2.78,2.15-5.88-.87-12.39-6.75-14.54ZM24.92,9.01c.15-.41.34-.79.56-1.15,0,0,0-.01,0-.02,1.49-2.36,4.48-3.44,7.2-2.45,3.14,1.15,4.76,4.63,3.61,7.78-.14.38-.31.74-.52,1.08-.03.05-.06.09-.09.13-.79,1.23-1.99,2.1-3.34,2.51-1.09.33-2.28.36-3.45.01-.13-.04-.26-.08-.39-.13-3.14-1.15-4.76-4.63-3.61-7.78Z"/>
</svg>